<?xml version="1.0" standalone="no"?>
<!DOCTYPE svg PUBLIC "-//W3C//DTD SVG 20010904//EN"
 "http://www.w3.org/TR/2001/REC-SVG-20010904/DTD/svg10.dtd">
<svg version="1.0" xmlns="http://www.w3.org/2000/svg"
 width="547.000000pt" height="155.000000pt" viewBox="0 0 547.000000 155.000000"
 preserveAspectRatio="xMidYMid meet">
<metadata>
Created by potrace 1.15, written by Peter Selinger 2001-2017
</metadata>
<g transform="translate(0.000000,155.000000) scale(0.100000,-0.100000)"
fill="#000000" stroke="none">
<path d="M860 1410 l0 -50 255 0 255 0 0 -255 0 -255 50 0 51 0 -3 285 c-3
257 -5 286 -21 302 -16 16 -45 18 -302 21 l-285 3 0 -51z"/>
<path d="M4730 1045 c0 -69 -2 -125 -4 -125 -2 0 -21 7 -42 16 -55 23 -132 15
-184 -20 -122 -81 -121 -322 1 -403 36 -24 53 -28 108 -28 42 0 78 6 99 17 26
14 32 14 32 2 0 -10 13 -14 50 -14 l50 0 0 340 0 340 -55 0 -55 0 0 -125z
m-51 -200 c35 -18 55 -65 55 -130 0 -65 -20 -112 -55 -130 -82 -43 -159 20
-159 130 0 110 77 173 159 130z"/>
<path d="M633 987 c-17 -6 -35 -15 -39 -19 -12 -13 -24 -9 -24 7 0 11 -12 15
-50 15 l-50 0 0 -225 0 -225 55 0 55 0 0 165 0 165 33 20 c61 38 118 18 137
-48 5 -20 10 -97 10 -169 l0 -133 55 0 55 0 0 144 c0 80 4 156 10 170 14 38
53 59 95 52 56 -11 65 -39 65 -216 l0 -150 55 0 55 0 0 163 c0 149 -2 166 -22
207 -30 57 -65 82 -127 88 -54 5 -129 -16 -151 -43 -10 -12 -17 -10 -47 12
-40 31 -118 40 -170 20z"/>
<path d="M1835 932 c-49 -23 -99 -78 -115 -127 -7 -20 -10 -69 -8 -109 3 -59
9 -81 30 -114 58 -87 181 -123 302 -88 l57 17 -2 47 -2 48 -51 -18 c-64 -22
-95 -22 -145 -2 -40 16 -62 40 -75 82 l-7 22 145 0 146 0 6 26 c17 68 -20 163
-79 202 -52 35 -144 41 -202 14z"/>
<path d="M2353 937 c-17 -6 -35 -15 -39 -19 -12 -13 -24 -9 -24 7 0 11 -12 15
-50 15 l-50 0 0 -225 0 -225 55 0 55 0 0 165 0 165 33 20 c61 38 118 18 137
-48 5 -20 10 -97 10 -169 l0 -133 55 0 55 0 0 144 c0 80 4 156 10 170 14 38
53 59 95 52 56 -11 65 -39 65 -216 l0 -150 55 0 55 0 0 163 c0 149 -2 166 -22
207 -30 57 -65 82 -127 88 -54 5 -129 -16 -151 -43 -10 -12 -17 -10 -47 12
-40 31 -118 40 -170 20z"/>
<path d="M3075 932 c-49 -23 -99 -78 -115 -127 -7 -20 -10 -69 -8 -109 3 -59
9 -81 30 -114 58 -87 181 -123 302 -88 l57 17 -2 47 -2 48 -51 -18 c-64 -22
-95 -22 -145 -2 -40 16 -62 40 -75 82 l-7 22 145 0 146 0 6 26 c17 68 -20 163
-79 202 -52 35 -144 41 -202 14z"/>
<path d="M3637 937 c-53 -17 -106 -63 -128 -111 -25 -55 -25 -166 0 -222 46
-100 184 -151 301 -111 34 12 35 14 31 57 -1 25 -4 46 -5 48 -2 1 -19 -5 -39
-13 -48 -20 -85 -19 -126 3 -64 34 -88 121 -57 197 27 63 101 89 179 62 l45
-15 4 45 c3 41 1 46 -22 56 -38 15 -140 18 -183 4z"/>
<path d="M4042 937 c-51 -19 -98 -62 -122 -112 -18 -38 -21 -59 -19 -125 4
-68 8 -84 34 -122 75 -108 244 -131 341 -46 56 50 79 102 78 183 0 82 -23 134
-78 183 -57 50 -157 66 -234 39z m133 -91 c44 -19 65 -61 65 -133 0 -98 -54
-154 -134 -139 -38 7 -82 51 -92 92 -10 40 2 114 23 143 37 49 80 61 138 37z"/>
<path d="M5045 932 c-49 -23 -99 -78 -115 -127 -7 -20 -10 -69 -8 -109 3 -59
9 -81 30 -114 58 -87 181 -123 302 -88 l57 17 -2 47 -2 48 -51 -18 c-64 -22
-95 -22 -145 -2 -40 16 -62 40 -75 82 l-7 22 145 0 146 0 6 26 c17 68 -20 163
-79 202 -52 35 -144 41 -202 14z"/>
<path d="M122 440 c3 -262 5 -291 21 -307 16 -16 45 -18 302 -21 l285 -3 0 51
0 50 -255 0 -255 0 0 260 0 260 -50 0 -51 0 3 -290z"/>
</g>
</svg>
